<svg xmlns="http://www.w3.org/2000/svg" width="100" height="100" viewBox="0 0 100 100"><defs><style>.a{fill:#89002a;}</style></defs><path class="a" d="M50,0a50,50,0,1,0,50,50A50.057,50.057,0,0,0,50,0Zm0,96.154A46.154,46.154,0,1,1,96.154,50,46.208,46.208,0,0,1,50,96.154Z"/><path class="a" d="M61.774,15.657l-29.139,33.8L15.079,34.975a1.859,1.859,0,0,0-2.664.3,2,2,0,0,0,.3,2.748l18.96,15.637a1.857,1.857,0,0,0,2.6-.229L64.61,18.253a2,2,0,0,0-.157-2.758A1.855,1.855,0,0,0,61.774,15.657Z" transform="translate(11.456 13.549)"/></svg>